# xmcd
#
# Track frame offsets: 
#        150
#        32370
#        62146
#        81030
#        112771
#        140770
#        160682
#        185712
#        210504
#        227579
#
# Disc length: 3239 seconds
#
# Revision: 2
# Processed by: cddbd v1.5.2PL0 Copyright (c) Steve Scherf et al.
# Submitted via: ExactAudioCopy v0.99pb5
#
DISCID=7a0ca50a
DTITLE=Sitra Achra - Sitra Achra
DYEAR=2007
DGENRE=Blues
TTITLE0=Closer
TTITLE1=I Got My Mojo Workin'
TTITLE2=The Red Rooster
TTITLE3=Me And The Devil Blues
TTITLE4=The Crossroads Blues
TTITLE5=Ramblin' On My Mind
TTITLE6=The Jealous Hearted Man
TTITLE7=The Mojo Boogie
TTITLE8=Baby, What Tou Want Me To Do
TTITLE9=You Got To Move
EXTD=
EXTT0=
EXTT1=
EXTT2=
EXTT3=
EXTT4=
EXTT5=
EXTT6=
EXTT7=
EXTT8=
EXTT9=
PLAYORDER=
